<svg width="49" height="49" viewBox="0 0 49 49" fill="none" xmlns="http://www.w3.org/2000/svg">
<path fill-rule="evenodd" clip-rule="evenodd" d="M0 24.3622C0 10.9073 10.9073 0 24.3622 0C30.8235 0 37.0201 2.56674 41.5889 7.13553C46.1577 11.7043 48.7244 17.9009 48.7244 24.3622C48.7244 37.8171 37.8171 48.7244 24.3622 48.7244C10.9073 48.7244 0 37.8171 0 24.3622Z" fill="#4255FF"/>
<path fill-rule="evenodd" clip-rule="evenodd" d="M32.0107 17.0628C32.2277 17.0628 32.4325 17.2431 32.4325 17.4841V23.1693H32.408C32.408 23.3864 32.2277 23.5912 31.9868 23.5912H16.7496C16.5693 23.5912 16.4246 23.4704 16.3645 23.314H16.3283V23.1693V17.4841V17.3639H16.3522C16.3884 17.1953 16.557 17.0628 16.7379 17.0628H32.0107ZM24.3609 26.9753C25.8318 26.9753 27.0121 28.1276 27.0238 29.6137C27.0483 31.0706 25.8679 32.2632 24.3743 32.2632C22.8929 32.2632 21.7242 31.0706 21.7242 29.5892C21.7242 28.144 22.8806 26.9875 24.3381 26.9759C24.3457 26.9753 24.3533 26.9753 24.3609 26.9753ZM22.0976 11.3052C21.0497 11.4259 19.9901 11.4977 18.9422 11.6424C17.5688 11.8472 16.256 12.2084 15.0995 13.0036C13.8591 13.859 13.2931 15.0755 13.2931 16.5686C13.2686 20.9049 13.2931 25.229 13.2931 29.5653C13.2931 32.6244 14.8224 34.3829 17.9183 34.8048C17.3161 35.6602 16.1235 36.1298 16.2921 37.4187H32.4442C32.5889 36.4186 31.8905 35.9005 31.2878 35.3106C31.1314 35.166 30.9388 35.0574 30.7702 34.9372L30.8665 34.8048C31.2277 34.7324 31.6011 34.684 31.9622 34.5877C34.0341 34.034 35.4432 32.2632 35.4432 30.0589C35.4554 25.6508 35.4432 21.2422 35.4432 16.8218C35.4432 14.6298 34.3953 13.1361 32.3479 12.3291C30.8665 11.7387 29.3005 11.5222 27.7105 11.4014C27.3494 11.3775 26.9882 11.3291 26.6265 11.3052H22.0976Z" fill="white"/>
</svg>
