<svg width="49" height="49" viewBox="0 0 49 49" fill="none" xmlns="http://www.w3.org/2000/svg">
<path fill-rule="evenodd" clip-rule="evenodd" d="M0 24.3622C0 10.9073 10.9073 0 24.3622 0C30.8235 0 37.0201 2.56673 41.5889 7.13553C46.1577 11.7043 48.7244 17.901 48.7244 24.3622C48.7244 37.8171 37.8171 48.7244 24.3622 48.7244C10.9073 48.7244 0 37.8171 0 24.3622Z" fill="#4255FF"/>
<path fill-rule="evenodd" clip-rule="evenodd" d="M23.2004 13.4048V15.3849L22.9396 15.4696C21.7948 15.7552 20.8311 16.3163 20.0833 17.1846C18.9835 18.4657 18.7908 19.9161 19.369 21.43C19.7769 22.5204 20.65 23.283 21.7042 23.8123C22.5992 24.2677 23.5518 24.6272 24.4924 25.0088C25.1272 25.2734 25.7504 25.5483 26.3176 25.9299C27.9044 26.9776 27.7342 29.0952 26.7596 30.1328C26.1051 30.8185 25.3128 31.1108 24.4309 31.1108C24.1822 31.1108 23.9269 31.0877 23.665 31.0431C22.5426 30.8528 21.7833 30.2492 21.4434 29.2327C21.2847 28.7778 21.1941 28.3013 21.092 27.8141C20.1508 27.9941 19.1987 28.1952 18.2241 28.3967C18.4053 29.5189 18.7567 30.5667 19.4711 31.4775C20.3892 32.6525 21.6471 33.3197 23.1774 33.5417V33.8172V35.3203H25.2633V33.8064V33.5525C25.3424 33.5417 25.3655 33.5315 25.388 33.5207C25.4445 33.4997 25.4901 33.4997 25.5467 33.4889C27.2241 33.2033 28.5276 32.3878 29.4572 31.0646C30.2847 29.9317 30.4999 28.6506 30.3638 27.3059C30.2847 26.353 29.9108 25.4955 29.253 24.7652C28.5732 24.0133 27.6886 23.4733 26.7365 23.0712C25.9771 22.743 25.1953 22.4568 24.4128 22.1603C23.8121 21.9275 23.2004 21.6736 22.6903 21.2608C21.8854 20.6146 21.7717 19.4606 22.4521 18.7093C23.0632 18.0082 23.8665 17.7431 24.7856 17.7431C24.8389 17.7431 24.8922 17.7441 24.946 17.7456C25.864 17.7667 26.6009 18.1164 27.1335 18.8149C27.2922 19.0268 27.4509 19.2386 27.6096 19.4714C28.3805 19.0478 29.1514 18.6242 29.9108 18.1903C28.8675 16.5071 27.4168 15.4162 25.2974 15.2362V14.9613V13.4048H23.2004Z" fill="white"/>
</svg>
