<svg width="49" height="49" viewBox="0 0 49 49" fill="none" xmlns="http://www.w3.org/2000/svg">
<path fill-rule="evenodd" clip-rule="evenodd" d="M0 24.3622C0 10.9073 10.9073 0 24.3622 0C30.8235 0 37.0201 2.56673 41.5889 7.13553C46.1577 11.7043 48.7244 17.9009 48.7244 24.3622C48.7244 37.8171 37.8171 48.7244 24.3622 48.7244C10.9073 48.7244 0 37.8171 0 24.3622Z" fill="#4255FF"/>
<path fill-rule="evenodd" clip-rule="evenodd" d="M30.5251 13.7305C29.1371 13.7305 27.7331 14.1438 26.5092 15.0123C25.6589 15.6036 24.9963 16.3674 24.4483 17.275C24.3764 17.1599 24.3331 17.0879 24.2465 16.9867C22.9284 14.879 20.6489 13.7368 18.3421 13.7368C16.8159 13.7368 15.2786 14.2366 13.9996 15.286C11.6935 17.1745 10.987 19.653 11.5923 22.5357C11.9526 24.265 12.8322 25.75 13.8697 27.1331C15.0084 28.632 16.2763 30.0018 17.66 31.2558C19.5339 32.9558 21.4364 34.6132 23.3529 36.2713L24.4343 37.1936C25.573 36.2134 26.6677 35.2618 27.7925 34.3256C30.0692 32.3938 32.2747 30.3907 34.2058 28.1133C35.3592 26.7156 36.3966 25.2599 36.9873 23.5306C37.7371 21.3537 37.7085 19.2208 36.5404 17.1885C35.2551 14.955 32.9142 13.7305 30.5251 13.7305Z" fill="white"/>
</svg>
