<svg width="48" height="48" viewBox="0 0 48 48" fill="none" xmlns="http://www.w3.org/2000/svg">
<path fill-rule="evenodd" clip-rule="evenodd" d="M0 24C0 10.7452 10.7452 0 24 0C30.3652 0 36.4697 2.52856 40.9706 7.02945C45.4714 11.5303 48 17.6348 48 24C48 37.2549 37.2548 48 24 48C10.7452 48 0 37.2549 0 24Z" fill="#4255FF"/>
<path fill-rule="evenodd" clip-rule="evenodd" d="M24.0004 11.6348L11.0381 23.7293H15.0942V32.4936L15.1294 32.7269L15.1983 32.9261L15.3011 33.0926L15.4039 33.259L15.5757 33.3927L15.7826 33.4923L15.9882 33.5591H21.4901V29.9942L21.5253 29.5945L21.6619 29.2275L21.8337 28.8946L22.0744 28.6285L22.3841 28.3952L22.6939 28.2288L23.0726 28.0951L23.4851 28.061H24.5157L24.9282 28.0951L25.3069 28.2288L25.6166 28.3952L25.9264 28.6285L26.1671 28.8946L26.3389 29.2275L26.4768 29.5945L26.5106 29.9942V33.5591H32.0126L32.2181 33.4923L32.4251 33.3927L32.5969 33.259L32.6996 33.0926L32.8024 32.9261L32.8714 32.7269L32.9066 32.4936V23.7293H36.9641L24.0004 11.6348Z" fill="white"/>
</svg>
