<svg width="48" height="48" viewBox="0 0 48 48" fill="none" xmlns="http://www.w3.org/2000/svg">
<path fill-rule="evenodd" clip-rule="evenodd" d="M0 24C0 10.7451 10.7452 0 24 0C30.3652 0 36.4697 2.52856 40.9706 7.02942C45.4714 11.5303 48 17.6348 48 24C48 37.2548 37.2548 48 24 48C10.7452 48 0 37.2548 0 24Z" fill="#4255FF"/>
<path fill-rule="evenodd" clip-rule="evenodd" d="M34.277 22.8145L33.5948 22.8971L32.671 23.1027L31.6272 23.4331L30.5028 23.8039L29.459 24.2151L28.9773 24.4208L28.5762 24.6669L28.2146 24.9147L27.9746 25.1203L27.774 25.3681L27.5735 25.5737L27.4519 25.862L27.3318 26.1081L27.2119 26.3558L27.1313 26.6441L27.0919 26.9323L27.0508 27.1784V27.4666L27.0919 27.7549L27.1313 28.0431L27.2119 28.3313L27.2924 28.5791L27.4124 28.8252L27.5735 29.1134L27.733 29.3191L31.0255 25.9445L31.1455 25.862H31.3872L31.5072 25.9445L31.5877 26.0676L31.6272 26.2328L31.5877 26.3558L31.5072 26.4789L28.2146 29.8551L28.4562 30.0186L28.6962 30.1837L28.9773 30.3068L29.219 30.3894L29.5001 30.472L29.7812 30.5141L30.0212 30.5546L30.3023 30.5141H30.5834L30.8645 30.472L31.1455 30.3894L31.3872 30.2663L31.6272 30.1433L31.8688 29.9781L32.1088 29.8129L32.311 29.6073L32.551 29.3191L32.7927 28.9904L32.9932 28.537L33.2332 28.0852L33.6343 26.9727L33.996 25.862L34.3181 24.7495L34.5187 23.8443L34.5992 23.1448V22.9392L34.5581 22.8145H34.277Z" fill="white"/>
<path fill-rule="evenodd" clip-rule="evenodd" d="M13.6009 25.0801L13.4415 25.1205L13.4004 25.2857V25.5739L13.4415 25.9852L13.522 26.5212L13.8015 27.7972L14.2042 29.2788L14.7253 30.843L15.0064 31.5847L15.2875 32.2842L15.5686 32.9432L15.8892 33.518L16.2113 34.0135L16.5319 34.3827L16.813 34.6709L17.1352 34.9187L17.4557 35.1244L17.8174 35.2895L18.179 35.453L18.539 35.5356L18.9417 35.6182L19.3018 35.6587H19.7045L20.0645 35.6182L20.4672 35.5356L20.8289 35.453L21.1889 35.2895L21.5505 35.1244L21.8727 34.9187L22.1932 34.6709L16.693 29.031L16.6124 28.908V28.7428V28.6198L16.693 28.4546L16.8541 28.3737H17.1352L17.2552 28.4546L22.7554 34.0945L22.9954 33.7658L23.196 33.4371L23.3571 33.0663L23.5182 32.6955L23.5987 32.3246L23.6793 31.9134L23.7187 31.5425V31.1313L23.6793 30.7604L23.5987 30.3492L23.5182 29.9783L23.3571 29.6075L23.196 29.2367L22.9954 28.908L22.7554 28.5793L22.4743 28.2911L22.1127 27.9607L21.631 27.632L21.0688 27.3033L20.4261 27.0151L19.7439 26.7269L19.0207 26.4386L17.4952 25.9026L16.0502 25.4913L14.8059 25.2031L14.2848 25.1205L13.882 25.0801H13.6009Z" fill="white"/>
<path fill-rule="evenodd" clip-rule="evenodd" d="M25.3246 14.1711L25.7257 14.2115L26.0479 14.3345L26.3684 14.4997L26.6495 14.7054L26.8501 14.9936L27.0506 15.3223L27.1312 15.6931L27.1706 16.0639L27.1312 16.4348L27.0506 16.8056L26.8501 17.1342L26.6495 17.382L26.3684 17.6281L26.0479 17.7933L25.7257 17.9164L25.3246 17.9585L24.963 17.9164L24.6013 17.7933L24.3202 17.6281L24.0391 17.382L23.7991 17.1342L23.638 16.8056L23.518 16.4348L23.4769 16.0639L23.518 15.6931L23.638 15.3223L23.7991 14.9936L24.0391 14.7054L24.3202 14.4997L24.6013 14.3345L24.963 14.2115L25.3246 14.1711ZM24.963 7.99512L24.6013 8.07773L24.2808 8.20078L23.9191 8.36597L23.5986 8.57159L23.2764 8.81937L22.9558 9.14804L22.6747 9.51889L22.2325 9.43628H21.8315L21.3893 9.51889L21.0293 9.60147L20.6676 9.72452L20.3454 9.88971L20.0249 10.0953L19.7438 10.3414L19.5432 10.6297L19.3016 10.9179L19.1422 11.2483L19.0205 11.6174L18.9416 12.0304L18.9005 12.4417V12.8934L18.9416 13.3468L18.58 13.635L18.2989 13.9232L18.0178 14.252L17.8172 14.6228L17.6561 14.9531L17.5361 15.3223L17.495 15.6931L17.4556 16.0639L17.495 16.4348L17.5361 16.8056L17.6561 17.1342L17.8172 17.5051L18.0178 17.8338L18.2989 18.1642L18.58 18.4928L18.9416 18.7811L18.9005 19.2345V19.6862L18.9416 20.0992L19.0205 20.4683L19.1422 20.8391L19.3016 21.1695L19.5432 21.4982L19.7438 21.7864L20.0249 22.0325L20.3454 22.2398L20.6676 22.4033L21.0293 22.5264L21.3893 22.609L21.8315 22.6511H22.2325L22.6747 22.609L23.0758 23.0624L23.4769 23.4332L23.9191 23.7619L24.3613 23.9675V41.3406L24.4008 41.5463L24.4419 41.7519L24.5208 41.9171L24.6424 42.0402L24.8018 42.1632L24.963 42.2879L25.1241 42.3284H25.5251L25.7257 42.2879L25.8868 42.1632L26.0068 42.0402L26.1268 41.9171L26.2484 41.7519L26.2879 41.5463V41.3406V23.9675L26.7695 23.7619L27.2117 23.4332L27.6128 23.0624L27.9745 22.609L28.415 22.6511H28.8572L29.2583 22.609L29.661 22.5264L30.021 22.4033L30.3432 22.2398L30.6243 22.0325L30.9054 21.7864L31.1454 21.4982L31.3459 21.1695L31.507 20.8391L31.627 20.4683L31.7487 20.0992L31.7881 19.6862V19.2345L31.7487 18.7811L32.0692 18.4928L32.3898 18.1642L32.6314 17.8338L32.832 17.5051L32.9931 17.1342L33.1131 16.8056L33.1936 16.4348L33.2331 16.0639L33.1936 15.6931L33.1131 15.3223L32.9931 14.9531L32.832 14.6228L32.6314 14.252L32.3898 13.9232L32.0692 13.635L31.7487 13.3468L31.7881 12.8934V12.4417L31.7487 12.0304L31.627 11.6174L31.507 11.2483L31.3459 10.9179L31.1454 10.6297L30.9054 10.3414L30.6243 10.0953L30.3432 9.88971L30.021 9.72452L29.661 9.60147L29.2583 9.51889L28.8572 9.43628H28.415L27.9745 9.51889L27.6934 9.14804L27.4123 8.81937L27.0917 8.57159L26.7301 8.36597L26.4079 8.20078L26.0479 8.07773L25.6862 7.99512H24.963Z" fill="white"/>
</svg>
